<svg xmlns="http://www.w3.org/2000/svg" viewBox="0 0 494.62 494.62"><defs><style>.cls-1{fill:#3329ff;}.cls-2{fill:#fff;}</style></defs><title>apps</title><g id="Capa_2" data-name="Capa 2"><g id="Layer_1" data-name="Layer 1"><circle class="cls-1" cx="247.31" cy="247.31" r="247.31"/><path class="cls-2" d="M272.48,384c-43.78,13.76-105.05-9.48-137-51.52-36.73-48.28-39.36-113.14-6.61-163.26C161,119.93,221,95,277.7,108.42l-3.23,11.26c-10.75,37.5-21.92,74.89-31.91,112.59A60.15,60.15,0,0,0,242.2,260c8.62,37.62,18.42,75,27.76,112.42C270.92,376.3,271.65,380.19,272.48,384Z"/><path class="cls-2" d="M290.38,381.13,260.11,259.84l120.21,34.45C364,337.17,334.2,365.38,290.38,381.13Z"/><path class="cls-2" d="M295.25,113.71c63.9,18.83,106.67,95.63,90.06,162L259.19,239.55Z"/></g></g></svg>