<svg xmlns="http://www.w3.org/2000/svg" viewBox="0 0 494.62 494.62"><defs><style>.cls-1{fill:#3329ff;}.cls-2{fill:#fff;}</style></defs><title>cms</title><g id="Capa_2" data-name="Capa 2"><g id="Layer_1" data-name="Layer 1"><circle class="cls-1" cx="247.31" cy="247.31" r="247.31"/><path class="cls-2" d="M390.51,182.32c0-3.32-3-6-6.62-6H113c-3.75,0-6.81,2.79-6.81,6.21v43.44H390.51Z"/><path class="cls-2" d="M106.19,236.68V338.21c0,14.43,12.65,26.23,28.11,26.23H362.59c15.36,0,27.92-11.72,27.92-26V236.68Z"/><path class="cls-2" d="M248.21,111.09c-39.49,0-72.18,29.8-77.85,60.8h155.7C320.39,140.89,287.7,111.09,248.21,111.09Zm-54.09,57.8c4-22,27.23-39.13,55.27-39.13s51.25,17.13,55.27,39.13Z"/><rect class="cls-1" x="150.58" y="251.83" width="21.87" height="53.59" rx="8.27" ry="8.27"/><rect class="cls-1" x="324.25" y="251.83" width="21.87" height="53.59" rx="8.27" ry="8.27"/></g></g></svg>