<svg xmlns="http://www.w3.org/2000/svg" viewBox="0 0 494.62 494.62"><defs><style>.cls-1{fill:#733999;}.cls-2{fill:#fff;}</style></defs><title>development</title><g id="Capa_2" data-name="Capa 2"><g id="Layer_1" data-name="Layer 1"><circle class="cls-1" cx="247.31" cy="247.31" r="247.31"/><path class="cls-2" d="M182.64,322.92a159.15,159.15,0,0,1,34-11.1c1.24-.27,2.35-.49,3.37-.68a148.28,148.28,0,0,1,21.45-2.61V252.9H172.55C173,277.9,176.51,301.81,182.64,322.92Z"/><path class="cls-2" d="M317.87,159.84c1.39-.7,2.78-1.41,4.16-2.15.9-.48,1.84-1,2.88-1.59a151.81,151.81,0,0,0,23.39-16.37,146.59,146.59,0,0,0-60.67-34.5c7.13,7.54,13.72,17.15,19.56,28.68A189.53,189.53,0,0,1,317.87,159.84Z"/><path class="cls-2" d="M228.94,100.77c-12.7,6.52-24.42,19.82-34.06,39a176.51,176.51,0,0,0-8.94,21.38,149.59,149.59,0,0,0,32.57,11.11c1,.22,2.08.44,3.2.66a144.27,144.27,0,0,0,19.75,2.48V99.75c-1,0-.76,0-1.13,0C236.52,100,232.71,100.3,228.94,100.77Z"/><path class="cls-2" d="M218.51,322.38a149.58,149.58,0,0,0-32.58,11.11,176.5,176.5,0,0,0,8.95,21.38c9.64,19.17,21.37,32.47,34.07,39,3.77.47,7.57.8,11.36,1,.38,0,.15,0,1.15,0V319.24a144.29,144.29,0,0,0-19.75,2.48C220.59,321.94,219.53,322.15,218.51,322.38Z"/><path class="cls-2" d="M216.62,182.79a159.65,159.65,0,0,1-34-11.31c-6.18,21.28-9.66,45.41-10.1,70.41h68.91V186.08A148.37,148.37,0,0,1,220,183.47C219,183.28,217.86,183.06,216.62,182.79Z"/><path class="cls-2" d="M174.3,167.33q-2.77-1.48-5.49-3.09c-1-.56-1.93-1.14-3-1.79a162.6,162.6,0,0,1-24.19-18.28,146.21,146.21,0,0,0-42,97.72h63.85C164,214.9,167.68,189.89,174.3,167.33Z"/><path class="cls-2" d="M177.64,337.75c-1.27.7-2.53,1.42-3.78,2.16q-1.41.84-2.82,1.71A152.21,152.21,0,0,0,149.3,358a147,147,0,0,0,57.59,31.41c-7.13-7.55-13.72-17.16-19.57-28.69A186.72,186.72,0,0,1,177.64,337.75Z"/><path class="cls-2" d="M168.82,330.26c1.81-1.06,3.63-2.19,5.48-3.18-6.57-22.4-10.28-47.19-10.78-74.19H99.69a147,147,0,0,0,41.8,97.44,161.41,161.41,0,0,1,24.35-18.23C166.86,331.48,167.87,330.82,168.82,330.26Z"/><path class="cls-2" d="M173.86,154.72c1.25.74,2.51,1.45,3.78,2.15a186.73,186.73,0,0,1,9.68-23,121.65,121.65,0,0,1,19.53-28.66,146.94,146.94,0,0,0-57.41,31.51A152.22,152.22,0,0,0,171,153Q172.44,153.88,173.86,154.72Z"/><path class="cls-2" d="M321.05,324.13c1.92.93,3.83,2.12,5.71,3.12,1.09.58,2.08,1.13,3,1.67A160.7,160.7,0,0,1,356,347.16a145.83,145.83,0,0,0,38.78-94.27H331C330.51,278.9,327.09,302.47,321.05,324.13Z"/><path class="cls-2" d="M276.26,173.48a149.54,149.54,0,0,0,33.2-9.76,178.92,178.92,0,0,0-9.84-24c-9.64-19.17-21.46-32.46-34.16-39-3.77-.47-7.68-.8-11.47-1-.44,0-1.55,0-1.55,0v75.88A151.75,151.75,0,0,0,272.87,174C274,173.82,275.27,173.65,276.26,173.48Z"/><path class="cls-2" d="M322,336.94c-1.38-.74-2.77-1.46-4.17-2.15a189.57,189.57,0,0,1-10.69,25.94c-5.84,11.53-12.43,21.15-19.57,28.69A147,147,0,0,0,348.46,355a151.78,151.78,0,0,0-23.56-16.52C323.87,337.94,322.93,337.42,322,336.94Z"/><path class="cls-2" d="M329.79,165.71c-1,.54-1.95,1.09-3,1.66q-2.83,1.51-5.71,2.91c6.09,21.82,9.51,46.61,9.94,71.61h63.85a147.39,147.39,0,0,0-39-94.52A162,162,0,0,1,329.79,165.71Z"/><path class="cls-2" d="M312.55,174.08a160.45,160.45,0,0,1-34.81,10c-1,.17-2.15.34-3.47.53a170.87,170.87,0,0,1-21.82,1.7v55.6H322A274.68,274.68,0,0,0,312.55,174.08Z"/><path class="cls-2" d="M277.87,310.45a159.69,159.69,0,0,1,34.74,9.88A274.65,274.65,0,0,0,322,252.9h-69.5v55.42A170.73,170.73,0,0,1,274.28,310C275.59,310.16,276.88,310.28,277.87,310.45Z"/><path class="cls-2" d="M309.41,330.91a149.84,149.84,0,0,0-33.23-9.76c-1-.18-2.17-.35-3.3-.52A151.83,151.83,0,0,0,252.45,319v75.89s1.1,0,1.53,0c3.8-.17,7.7-.51,11.47-1,12.7-6.52,24.51-19.82,34.15-39A178.86,178.86,0,0,0,309.41,330.91Z"/></g></g></svg>