<svg xmlns="http://www.w3.org/2000/svg" viewBox="0 0 494.62 494.62"><defs><style>.cls-1{fill:#38929a;}.cls-2{fill:#fff;}</style></defs><title>ecommerce</title><g id="Capa_2" data-name="Capa 2"><g id="Layer_1" data-name="Layer 1"><circle class="cls-1" cx="247.31" cy="247.31" r="247.31"/><path class="cls-2" d="M356.89,368.91a17.77,17.77,0,0,1-17,12.84H154.7a17.77,17.77,0,0,1-17-12.84L90.55,199.76h48.58l103.94-109a4.29,4.29,0,0,1,6.58.4,5.64,5.64,0,0,1-.26,7.34L152.87,199.76H354.12L270,65.42a5.66,5.66,0,0,1,1.1-7.29,4.29,4.29,0,0,1,6.5,1.1l88,140.53h38.52Z"/><polygon class="cls-1" points="265.83 258.37 262.02 337.14 285.27 337.14 295.08 258.37 265.83 258.37"/><polygon class="cls-1" points="146.02 258.37 166.82 337.14 190.07 337.14 175.28 258.37 146.02 258.37"/><polygon class="cls-1" points="205.93 258.37 214.43 337.14 237.67 337.14 235.18 258.37 205.93 258.37"/><polygon class="cls-1" points="325.73 258.37 309.63 337.14 332.87 337.14 354.99 258.37 325.73 258.37"/></g></g></svg>