<?xml version="1.0" encoding="utf-8"?>
<!-- Generator: Adobe Illustrator 21.0.0, SVG Export Plug-In . SVG Version: 6.00 Build 0)  -->
<svg version="1.1" id="Capa_1" xmlns="http://www.w3.org/2000/svg" xmlns:xlink="http://www.w3.org/1999/xlink" x="0px" y="0px"
	 viewBox="0 0 476.3 476.3" style="enable-background:new 0 0 476.3 476.3;" xml:space="preserve">
<style type="text/css">
	.st0{fill:#3329FF;}
	.st1{fill:#FFFFFF;}
</style>
<circle class="st0" cx="238.1" cy="238.1" r="238.1"/>
<g>
	<g>
		<path class="st1" d="M342.3,245.4H230.9V134c0-4.5-3.6-8.1-8.1-8.1c-70.3,0-127.6,57.2-127.6,127.6S152.5,381,222.8,381
			s127.6-57.2,127.6-127.6C350.4,249,346.8,245.4,342.3,245.4z M222.8,364.8c-61.4,0-111.4-50-111.4-111.4
			c0-58.7,45.6-106.9,103.3-111.1v111.1c0,4.5,3.6,8.1,8.1,8.1h111.1C329.8,319.2,281.5,364.8,222.8,364.8z"/>
		<path class="st1" d="M381,222.4c-0.1-31-11.5-60.8-31.9-84c-24.2-27.4-59-43.1-95.6-43.1c-4.5,0-8.1,3.6-8.1,8.1v119.5
			c0,4.5,3.6,8.1,8.1,8.1h119.5l0,0c4.5,0,8.1-3.6,8.1-8.1C381,222.7,381,222.6,381,222.4z M261.5,214.8v-103
			c28.9,2.1,56,15.5,75.4,37.4c16.2,18.3,25.8,41.3,27.6,65.6L261.5,214.8L261.5,214.8z"/>
	</g>
</g>
</svg>
