<?xml version="1.0" encoding="utf-8"?>
<!-- Generator: Adobe Illustrator 21.0.0, SVG Export Plug-In . SVG Version: 6.00 Build 0)  -->
<svg version="1.1" id="Capa_1" xmlns="http://www.w3.org/2000/svg" xmlns:xlink="http://www.w3.org/1999/xlink" x="0px" y="0px"
	 viewBox="0 0 476.3 476.3" style="enable-background:new 0 0 476.3 476.3;" xml:space="preserve">
<style type="text/css">
	.st0{fill:#3329FF;}
</style>
<g>
	<g>
		<path class="st0" d="M411.6,250.2H226.1V64.7c0-7.5-6-13.5-13.5-13.5C95.5,51.2,0,146.5,0,263.7s95.4,212.4,212.5,212.4
			s212.5-95.3,212.5-212.5C425.1,256.2,419.1,250.2,411.6,250.2z M212.6,449.1C110.3,449.1,27,365.8,27,263.6
			c0-97.8,76-178.1,172.1-185.1v185.1c0,7.5,6,13.5,13.5,13.5h185.1C390.8,373.1,310.4,449.1,212.6,449.1z"/>
		<path class="st0" d="M476.1,211.9C475.9,160.3,456.9,110.6,423,72C382.6,26.4,324.7,0.2,263.7,0.2c-7.5,0-13.5,6-13.5,13.5v199
			c0,7.5,6,13.5,13.5,13.5h199l0,0c7.5,0,13.5-6,13.5-13.5C476.1,212.4,476.1,212.2,476.1,211.9z M277,199.3V27.7
			c48.1,3.5,93.3,25.8,125.6,62.3c27,30.5,43,68.8,46,109.3L277,199.3L277,199.3z"/>
	</g>
</g>
</svg>
