<?xml version="1.0" encoding="utf-8"?>
<!-- Generator: Adobe Illustrator 21.0.0, SVG Export Plug-In . SVG Version: 6.00 Build 0)  -->
<svg version="1.1" id="Capa_1" xmlns="http://www.w3.org/2000/svg" xmlns:xlink="http://www.w3.org/1999/xlink" x="0px" y="0px"
	 viewBox="0 0 469.3 469.3" style="enable-background:new 0 0 469.3 469.3;" xml:space="preserve">
<style type="text/css">
	.st0{fill:#3329FF;}
	.st1{fill:#FFFFFF;}
</style>
<circle class="st0" cx="235.1" cy="235.1" r="238.1"/>
<g>
	<path class="st1" d="M359,110.3c-24.6-24.7-64.6-24.7-89.2,0L106.3,273.8c-1.3,1.3-2.1,2.9-2.3,4.7l-12.1,89.7
		c-0.4,2.6,0.5,5.1,2.3,6.9c1.5,1.5,3.7,2.4,5.8,2.4c0.4,0,0.7,0,1.1-0.1l54.1-7.3c4.5-0.6,7.7-4.7,7.1-9.3
		c-0.6-4.5-4.7-7.7-9.3-7.1l-43.3,5.8l8.5-62.6l65.9,65.9c1.5,1.5,3.7,2.4,5.8,2.4s4.3-0.9,5.8-2.4L359,199.5
		c11.9-11.9,18.5-27.8,18.5-44.6S371,122.2,359,110.3z M273,130.4l27.5,27.5L151.2,307.1l-27.5-27.5L273,130.4z M189.8,345.5
		l-26.8-26.8l149.2-149.2l26.8,26.8L189.8,345.5z M350.4,184.6l-65.7-65.7c8.3-6.9,18.8-10.7,29.7-10.7c12.5,0,24.2,4.9,33,13.6
		c8.8,8.8,13.6,20.5,13.6,33C361.1,165.9,357.3,176.2,350.4,184.6z"/>
</g>
</svg>
