<?xml version="1.0" encoding="utf-8"?>
<!-- Generator: Adobe Illustrator 21.0.0, SVG Export Plug-In . SVG Version: 6.00 Build 0)  -->
<svg version="1.1" id="Capa_1" xmlns="http://www.w3.org/2000/svg" xmlns:xlink="http://www.w3.org/1999/xlink" x="0px" y="0px"
	 viewBox="0 0 469.3 469.3" style="enable-background:new 0 0 469.3 469.3;" xml:space="preserve">
<style type="text/css">
	.st0{fill:#3329FF;}
</style>
<g>
	<path class="st0" d="M437,32.3c-40-40.2-105.1-40.2-145.2,0L25.8,298.4c-2.1,2.1-3.4,4.7-3.7,7.6L2.3,452
		c-0.7,4.2,0.8,8.3,3.7,11.2c2.4,2.4,6,3.9,9.4,3.9c0.7,0,1.1,0,1.8-0.2l88-11.9c7.3-1,12.5-7.6,11.6-15.1
		c-1-7.3-7.6-12.5-15.1-11.6l-70.5,9.4L45.1,336l107.2,107.2c2.4,2.4,6,3.9,9.4,3.9s7-1.5,9.4-3.9L437,177.5
		c19.4-19.4,30.1-45.2,30.1-72.6S456.5,51.7,437,32.3z M297.1,65l44.8,44.8l-243,242.8l-44.8-44.8L297.1,65z M161.7,415.1L118,371.4
		l242.8-242.8l43.6,43.6L161.7,415.1z M423,153.2L316.1,46.3c13.5-11.2,30.6-17.4,48.3-17.4c20.3,0,39.4,8,53.7,22.1
		c14.3,14.3,22.1,33.4,22.1,53.7C440.4,122.8,434.3,139.5,423,153.2z"/>
</g>
</svg>
