<?xml version="1.0" encoding="utf-8"?>
<!-- Generator: Adobe Illustrator 21.0.0, SVG Export Plug-In . SVG Version: 6.00 Build 0)  -->
<svg version="1.1" id="Capa_1" xmlns="http://www.w3.org/2000/svg" xmlns:xlink="http://www.w3.org/1999/xlink" x="0px" y="0px"
	 viewBox="0 0 473 473" style="enable-background:new 0 0 473 473;" xml:space="preserve">
<style type="text/css">
	.st0{fill:#3329FF;}
</style>
<g>
	<g>
		<path class="st0" d="M404.6,68.2c-45-45-104.6-69.8-168.3-69.8S113,23.2,68,68.2c-87,87-93,226.1-15,320.1
			c-7.7,15.3-20,33.3-38.2,42.3C6,435,1.2,444.3,2.7,454c1.5,9.7,9,17.2,18.7,18.7c4.5,0.7,11,1.3,18.8,1.3c21,0,52-5,83.8-27.8
			c35.3,19,74,28.3,112.3,28.3c61.7,0,122.6-23.8,168.5-69.8c45-45,69.8-104.6,69.8-168.3S449.6,113.2,404.6,68.2z M385.5,385.7
			c-68,68-173.1,81.5-256,32.8c-5.5-3.2-12.2-2.2-16.5,2.2c-0.3,0.2-0.8,0.5-1.2,0.8C84.5,442.7,57.9,447,40,447h-0.2
			c20.5-14.8,33.3-37,40.8-54.3c1.2-3,1.3-6,0.7-8.8c-0.3-2.7-1.3-5.5-3.3-7.7C4.4,292.9,8.2,166,86.9,87.4
			c82.3-82.3,216-82.3,298.1,0C467.8,169.7,467.8,303.4,385.5,385.7z"/>
		<circle class="st0" cx="236.3" cy="236.5" r="16.7"/>
		<circle class="st0" cx="322.5" cy="236.5" r="16.7"/>
		<circle class="st0" cx="150.2" cy="236.5" r="16.7"/>
	</g>
</g>
</svg>
