<?xml version="1.0" encoding="utf-8"?>
<!-- Generator: Adobe Illustrator 21.0.0, SVG Export Plug-In . SVG Version: 6.00 Build 0)  -->
<svg version="1.1" id="Capa_1" xmlns="http://www.w3.org/2000/svg" xmlns:xlink="http://www.w3.org/1999/xlink" x="0px" y="0px"
	 viewBox="0 0 473 473" style="enable-background:new 0 0 473 473;" xml:space="preserve">
<style type="text/css">
	.st0{fill:#3329FF;}
	.st1{fill:#FFFFFF;}
</style>
<circle class="st0" cx="236.1" cy="236.1" r="238.1"/>
<g>
	<g>
		<path class="st1" d="M337.4,135.5c-27-27-62.8-41.9-101-41.9s-74,14.9-101,41.9c-52.2,52.2-55.8,135.7-9,192.1
			c-4.6,9.2-12,20-22.9,25.4c-5.3,2.6-8.2,8.2-7.3,14c0.9,5.8,5.4,10.3,11.2,11.2c2.7,0.4,6.6,0.8,11.3,0.8c12.6,0,31.2-3,50.3-16.7
			c21.2,11.4,44.4,17,67.4,17c37,0,73.6-14.3,101.1-41.9c27-27,41.9-62.8,41.9-101S364.4,162.5,337.4,135.5z M325.9,326
			c-40.8,40.8-103.9,48.9-153.6,19.7c-3.3-1.9-7.3-1.3-9.9,1.3c-0.2,0.1-0.5,0.3-0.7,0.5c-16.4,12.7-32.4,15.3-43.1,15.3h-0.1
			c12.3-8.9,20-22.2,24.5-32.6c0.7-1.8,0.8-3.6,0.4-5.3c-0.2-1.6-0.8-3.3-2-4.6c-44.2-50-41.9-126.1,5.3-173.3
			c49.4-49.4,129.6-49.4,178.9,0C375.3,196.4,375.3,276.6,325.9,326z"/>
		<circle class="st1" cx="236.4" cy="236.5" r="10"/>
		<circle class="st1" cx="288.1" cy="236.5" r="10"/>
		<circle class="st1" cx="184.7" cy="236.5" r="10"/>
	</g>
</g>
</svg>
