<?xml version="1.0" encoding="utf-8"?>
<!-- Generator: Adobe Illustrator 21.0.0, SVG Export Plug-In . SVG Version: 6.00 Build 0)  -->
<svg version="1.1" id="Capa_1" xmlns="http://www.w3.org/2000/svg" xmlns:xlink="http://www.w3.org/1999/xlink" x="0px" y="0px"
	 viewBox="0 0 482.9 482.9" style="enable-background:new 0 0 482.9 482.9;" xml:space="preserve">
<style type="text/css">
	.st0{fill:#3329FF;}
	.st1{fill:#FFFFFF;}
</style>
<circle class="st0" cx="241.1" cy="241.4" r="238.1"/>
<g>
	<g>
		<path class="st1" d="M240.2,254.5c0.3,0,0.7,0,1.1,0c0.1,0,0.3,0,0.4,0c0.2,0,0.5,0,0.7,0c20.4-0.3,36.9-7.5,49-21.2
			c26.8-30.2,22.3-81.9,21.8-86.9c-1.7-37.1-19.3-54.8-33.7-63.1c-10.8-6.2-23.4-9.5-37.4-9.8h-0.5c-0.1,0-0.2,0-0.3,0H241
			c-7.7,0-22.9,1.3-37.4,9.5c-14.6,8.3-32.4,26-34.2,63.4c-0.5,4.9-4.9,56.7,21.8,86.9C203.4,247,219.9,254.1,240.2,254.5z
			 M188,148.1c0-0.2,0.1-0.4,0.1-0.6c2.3-49.9,37.7-55.2,52.9-55.2h0.3c0.1,0,0.3,0,0.6,0c18.8,0.4,50.7,8.1,52.9,55.2
			c0,0.2,0,0.4,0.1,0.6c0.1,0.5,4.9,47.8-17.2,72.7c-8.8,9.9-20.5,14.7-35.8,14.9c-0.1,0-0.2,0-0.3,0l0,0c-0.1,0-0.2,0-0.3,0
			c-15.3-0.1-27.1-5-35.8-14.9C183.2,196.1,187.9,148.6,188,148.1z"/>
		<path class="st1" d="M384.3,340.3c0-0.1,0-0.1,0-0.2c0-0.6-0.1-1.1-0.1-1.7c-0.4-13.8-1.3-46-31.5-56.3c-0.2-0.1-0.5-0.1-0.7-0.2
			c-31.4-8-57.5-26.1-57.7-26.3c-4.2-3-10.1-1.9-13.1,2.3c-3,4.2-1.9,10.1,2.3,13.1c1.2,0.8,28.9,20.1,63.5,29
			c16.2,5.8,18,23.1,18.5,39c0,0.6,0,1.2,0.1,1.7c0.1,6.3-0.3,15.9-1.5,21.5c-11.3,6.4-55.4,28.5-122.6,28.5
			c-66.9,0-111.4-22.2-122.7-28.6c-1.1-5.6-1.6-15.2-1.5-21.5c0-0.6,0.1-1.1,0.1-1.7c0.5-15.9,2.3-33.2,18.5-39
			c34.6-8.9,62.3-28.2,63.5-29c4.2-3,5.3-8.8,2.3-13.1c-3-4.2-8.8-5.3-13.1-2.3c-0.3,0.2-26.2,18.3-57.7,26.3
			c-0.3,0.1-0.5,0.1-0.7,0.2c-30.2,10.4-31.1,42.6-31.5,56.3c0,0.6,0,1.2-0.1,1.7c0,0.1,0,0.1,0,0.2c-0.1,3.6-0.1,22.2,3.5,31.5
			c0.7,1.8,1.9,3.3,3.6,4.4c2.1,1.4,52.1,33.2,135.8,33.2s133.7-31.9,135.8-33.2c1.6-1,2.9-2.6,3.6-4.4
			C384.4,362.5,384.4,343.9,384.3,340.3z"/>
	</g>
</g>
</svg>
