<?xml version="1.0" encoding="utf-8"?>
<!-- Generator: Adobe Illustrator 21.0.0, SVG Export Plug-In . SVG Version: 6.00 Build 0)  -->
<svg version="1.1" id="Capa_1" xmlns="http://www.w3.org/2000/svg" xmlns:xlink="http://www.w3.org/1999/xlink" x="0px" y="0px"
	 viewBox="0 0 482.9 482.9" style="enable-background:new 0 0 482.9 482.9;" xml:space="preserve">
<style type="text/css">
	.st0{fill:#3329FF;}
</style>
<g>
	<g>
		<path class="st0" d="M239.7,260c0.4,0,1,0,1.6,0c0.1,0,0.4,0,0.6,0c0.3,0,0.7,0,1,0c28.9-0.4,52.3-10.6,69.5-30.1
			c38-42.8,31.6-116.1,30.9-123.2c-2.4-52.6-27.4-77.7-47.8-89.5c-15.3-8.8-33.2-13.5-53-13.9h-0.7c-0.1,0-0.3,0-0.4,0h-0.4
			c-10.9,0-32.5,1.8-53,13.5c-20.7,11.8-45.9,36.9-48.5,89.9c-0.7,6.9-6.9,80.4,30.9,123.2C187.5,249.3,210.9,259.4,239.7,260z
			 M165.7,109.1c0-0.3,0.1-0.6,0.1-0.9c3.3-70.8,53.5-78.3,75-78.3h0.4c0.1,0,0.4,0,0.9,0c26.7,0.6,71.9,11.5,75,78.3
			c0,0.3,0,0.6,0.1,0.9c0.1,0.7,6.9,67.8-24.4,103.1c-12.5,14-29.1,20.8-50.8,21.1c-0.1,0-0.3,0-0.4,0l0,0c-0.1,0-0.3,0-0.4,0
			c-21.7-0.1-38.4-7.1-50.8-21.1C158.8,177.2,165.5,109.8,165.7,109.1z"/>
		<path class="st0" d="M444,381.7c0-0.1,0-0.1,0-0.3c0-0.9-0.1-1.6-0.1-2.4c-0.6-19.6-1.8-65.2-44.7-79.8c-0.3-0.1-0.7-0.1-1-0.3
			c-44.5-11.3-81.5-37-81.8-37.3c-6-4.3-14.3-2.7-18.6,3.3c-4.3,6-2.7,14.3,3.3,18.6c1.7,1.1,41,28.5,90,41.1
			c23,8.2,25.5,32.8,26.2,55.3c0,0.9,0,1.7,0.1,2.4c0.1,8.9-0.4,22.5-2.1,30.5c-16,9.1-78.6,40.4-173.9,40.4
			c-94.9,0-158-31.5-174-40.6c-1.6-7.9-2.3-21.6-2.1-30.5c0-0.9,0.1-1.6,0.1-2.4c0.7-22.5,3.3-47.1,26.2-55.3
			c49.1-12.6,88.3-40,90-41.1c6-4.3,7.5-12.5,3.3-18.6c-4.3-6-12.5-7.5-18.6-3.3c-0.4,0.3-37.2,26-81.8,37.3c-0.4,0.1-0.7,0.1-1,0.3
			c-42.8,14.7-44.1,60.4-44.7,79.8c0,0.9,0,1.7-0.1,2.4c0,0.1,0,0.1,0,0.3c-0.1,5.1-0.1,31.5,5,44.7c1,2.6,2.7,4.7,5.1,6.2
			c3,2,73.9,47.1,192.6,47.1s189.6-45.2,192.6-47.1c2.3-1.4,4.1-3.7,5.1-6.2C444.2,413.1,444.2,386.8,444,381.7z"/>
	</g>
</g>
</svg>
