<?xml version="1.0" encoding="utf-8"?>
<!-- Generator: Adobe Illustrator 21.0.0, SVG Export Plug-In . SVG Version: 6.00 Build 0)  -->
<svg version="1.1" id="Capa_1" xmlns="http://www.w3.org/2000/svg" xmlns:xlink="http://www.w3.org/1999/xlink" x="0px" y="0px"
	 viewBox="0 0 481.6 481.6" style="enable-background:new 0 0 481.6 481.6;" xml:space="preserve">
<style type="text/css">
	.st0{fill:#3329FF;}
</style>
<g>
	<path class="st0" d="M420.3,26.8H61.4C29,26.8,2.7,53.2,2.7,85.5v227.7c0,32.4,26.4,58.7,58.7,58.7h166.1v56h-82.9
		c-7.3,0-13.3,6-13.3,13.3s6,13.3,13.3,13.3h192.3c7.3,0,13.3-6,13.3-13.3s-6-13.3-13.3-13.3H254v-56h166.1
		c32.4,0,58.7-26.4,58.7-58.7V85.5C479.2,53.2,452.8,26.8,420.3,26.8z M61.4,53.5h359.1c17.7,0,32,14.3,32,32v190.3H29.3V85.5
		C29.3,67.9,43.7,53.5,61.4,53.5z M420.3,345.2H61.4c-17.7,0-32-14.3-32-32v-10.7h423.2v10.7C452.3,330.9,438,345.2,420.3,345.2z"/>
</g>
</svg>
