<?xml version="1.0" encoding="utf-8"?>
<!-- Generator: Adobe Illustrator 21.0.0, SVG Export Plug-In . SVG Version: 6.00 Build 0)  -->
<svg version="1.1" id="Capa_1" xmlns="http://www.w3.org/2000/svg" xmlns:xlink="http://www.w3.org/1999/xlink" x="0px" y="0px"
	 viewBox="0 0 486.6 486.6" style="enable-background:new 0 0 486.6 486.6;" xml:space="preserve">
<style type="text/css">
	.st0{fill:#3329FF;}
</style>
<g>
	<path class="st0" d="M148.4,319.1h262.5c29.7,0,54.1-24.3,54.1-54.1V154.5c0-0.2,0-0.3,0-0.5c0-0.3,0-0.5,0-0.8
		c0-0.2,0-0.5-0.2-0.6c0-0.2-0.2-0.5-0.2-0.6s-0.2-0.5-0.2-0.6c-0.2-0.2-0.2-0.5-0.2-0.6c-0.2-0.2-0.2-0.5-0.2-0.6
		c-0.2-0.2-0.2-0.5-0.2-0.6c-0.2-0.2-0.2-0.5-0.3-0.6c-0.2-0.2-0.2-0.5-0.3-0.5c-0.2-0.2-0.2-0.5-0.3-0.6c-0.2-0.2-0.2-0.3-0.3-0.5
		s-0.3-0.5-0.5-0.6c-0.2-0.2-0.2-0.3-0.5-0.5c-0.2-0.2-0.3-0.3-0.5-0.5c-0.2-0.2-0.3-0.3-0.5-0.5c-0.2-0.2-0.3-0.3-0.5-0.5
		c-0.2-0.2-0.3-0.3-0.5-0.5c-0.2-0.2-0.3-0.3-0.5-0.5c-0.2-0.2-0.5-0.3-0.6-0.5s-0.3-0.2-0.5-0.3c-0.2-0.2-0.5-0.2-0.6-0.5
		c-0.2-0.2-0.5-0.2-0.6-0.3c-0.2-0.2-0.5-0.2-0.6-0.3s-0.5-0.2-0.6-0.3c-0.2-0.2-0.5-0.2-0.6-0.2c-0.2-0.2-0.5-0.2-0.6-0.2
		s-0.5-0.2-0.5-0.2c-0.3-0.2-0.5-0.2-0.8-0.2c-0.2,0-0.2-0.2-0.5-0.2L120.3,95.2V48.7c0-0.5,0-0.9-0.2-1.4c0-0.2,0-0.2-0.2-0.5
		c0-0.3-0.2-0.6-0.2-0.9c-0.2-0.3-0.2-0.5-0.2-0.8c0-0.2-0.2-0.3-0.2-0.5c-0.2-0.3-0.2-0.6-0.3-0.9c0-0.2-0.2-0.3-0.2-0.5
		c-0.2-0.3-0.2-0.5-0.5-0.8c-0.2-0.2-0.2-0.3-0.2-0.5c-0.2-0.2-0.2-0.5-0.5-0.6c-0.2-0.2-0.2-0.3-0.3-0.5c-0.2-0.2-0.2-0.3-0.3-0.5
		c-0.2-0.2-0.3-0.5-0.5-0.6s-0.2-0.2-0.3-0.3c-0.2-0.2-0.5-0.5-0.6-0.6c-0.2-0.2-0.2-0.2-0.3-0.3c-0.2-0.2-0.5-0.5-0.6-0.6
		c-0.2-0.2-0.3-0.2-0.5-0.3c-0.2-0.2-0.5-0.3-0.6-0.5c-0.3-0.2-0.6-0.5-0.8-0.5c-0.2-0.2-0.2-0.2-0.3-0.2c-0.5-0.2-0.9-0.5-1.2-0.6
		L39.4,5.6c-6.8-2.8-14.6,0.3-17.4,7c-2.8,6.8,0.3,14.6,7,17.4l64,27v60v9.5v72.8v65.1v82.3c0,27.4,20.6,50.2,47.1,53.6
		c-4.8,8.1-7.6,17.4-7.6,27.4c0,29.4,24,53.3,53.3,53.3s53.3-24,53.3-53.3c0-9.8-2.6-19.1-7.3-27h118.8c-4.6,7.9-7.3,17.2-7.3,27
		c0,29.4,24,53.3,53.3,53.3s53.3-24,53.3-53.3s-24-53.3-53.3-53.3H148.4c-15.3,0-27.6-12.4-27.6-27.6v-35.8
		C128.7,316.3,138.1,319.1,148.4,319.1z M214,428.3c0,14.9-12.1,27-27,27c-14.7,0-27-12.1-27-27c0-14.9,12.1-27,27-27
		S214,413.4,214,428.3z M424.9,428.3c0,14.9-12.1,27-27,27c-14.7,0-27-12.1-27-27c0-14.9,12.1-27,27-27S424.9,413.4,424.9,428.3z
		 M410.8,292.6H148.4c-15.3,0-27.6-12.4-27.6-27.6v-65.1v-72.8v-5l317.6,43.7v99C438.4,280.3,426,292.6,410.8,292.6z"/>
</g>
</svg>
