<?xml version="1.0" encoding="utf-8"?>
<!-- Generator: Adobe Illustrator 21.0.0, SVG Export Plug-In . SVG Version: 6.00 Build 0)  -->
<svg version="1.1" id="Capa_1" xmlns="http://www.w3.org/2000/svg" xmlns:xlink="http://www.w3.org/1999/xlink" x="0px" y="0px"
	 viewBox="0 0 486.2 486.2" style="enable-background:new 0 0 486.2 486.2;" xml:space="preserve">
<style type="text/css">
	.st0{fill:#3329FF;}
</style>
<g>
	<path class="st0" d="M476.8,221l-224-200.4c-0.3-0.3-0.8-0.7-1.3-1c-4.8-4.7-12.7-4.8-18-0.3L9.4,219.6c-5.5,4.8-5.8,13.2-1,18.7
		c2.7,3,6.3,4.3,9.8,4.3c3.2,0,6.3-1,8.8-3.3l40.3-36.2v7v104.7v122c0,18.3,14.8,33.3,33.3,33.3c0.3,0,0.5,0,0.8,0s0.5,0,0.8,0h69.2
		c17.2,0,31.2-14,31.2-31.2V320.1c0-2.7,2.2-4.8,4.8-4.8h71.3c2.7,0,4.8,2.2,4.8,4.8V439c0,17.2,14,31.2,31.2,31.2h70.7
		c18.7,0,33.3-18.3,33.3-41.7V319.6v-33.3v-81.7l40.3,36.2c2.5,2.3,5.7,3.3,8.8,3.3c3.7,0,7.2-1.5,9.8-4.3
		C482.6,234.1,482.3,225.8,476.8,221z M392.4,286.3v33.3v108.8c0,9.5-4.7,15.3-6.8,15.3h-70.7c-2.7,0-4.8-2.2-4.8-4.8V320.3
		c0-17.2-14-31.2-31.2-31.2h-71.3c-17.2,0-31.2,14-31.2,31.2v118.8c0,2.7-2.2,4.8-4.8,4.8h-69.2c-0.3,0-0.5,0-0.8,0s-0.5,0-0.8,0
		c-3.7,0-6.8-3-6.8-6.8V315V210.3v-30.7L242.6,46.8l150,134.2v105.3H392.4z"/>
</g>
</svg>
