<?xml version="1.0" encoding="utf-8"?>
<!-- Generator: Adobe Illustrator 21.0.0, SVG Export Plug-In . SVG Version: 6.00 Build 0)  -->
<svg version="1.1" id="Capa_1" xmlns="http://www.w3.org/2000/svg" xmlns:xlink="http://www.w3.org/1999/xlink" x="0px" y="0px"
	 viewBox="0 0 486.2 486.2" style="enable-background:new 0 0 486.2 486.2;" xml:space="preserve">
<style type="text/css">
	.st0{fill:#3329FF;}
	.st1{fill:#FFFFFF;}
</style>
<circle class="st0" cx="243.1" cy="243.1" r="238.1"/>
<g>
	<path class="st1" d="M383.3,229.8L248.9,109.6c-0.2-0.2-0.5-0.4-0.8-0.6c-2.9-2.8-7.6-2.9-10.8-0.2L102.9,229
		c-3.3,2.9-3.5,7.9-0.6,11.2c1.6,1.8,3.8,2.6,5.9,2.6c1.9,0,3.8-0.6,5.3-2l24.2-21.7v4.2v62.8v73.2c0,11,8.9,20,20,20
		c0.2,0,0.3,0,0.5,0s0.3,0,0.5,0h41.5c10.3,0,18.7-8.4,18.7-18.7v-71.3c0-1.6,1.3-2.9,2.9-2.9h42.8c1.6,0,2.9,1.3,2.9,2.9v71.3
		c0,10.3,8.4,18.7,18.7,18.7h42.4c11.2,0,20-11,20-25V289v-20V220l24.2,21.7c1.5,1.4,3.4,2,5.3,2c2.2,0,4.3-0.9,5.9-2.6
		C386.8,237.7,386.6,232.7,383.3,229.8z M332.7,269v20v65.3c0,5.7-2.8,9.2-4.1,9.2h-42.4c-1.6,0-2.9-1.3-2.9-2.9v-71.2
		c0-10.3-8.4-18.7-18.7-18.7h-42.8c-10.3,0-18.7,8.4-18.7,18.7v71.3c0,1.6-1.3,2.9-2.9,2.9h-41.5c-0.2,0-0.3,0-0.5,0s-0.3,0-0.5,0
		c-2.2,0-4.1-1.8-4.1-4.1v-73.3v-62.8V205l89.2-79.7l90,80.5V269L332.7,269z"/>
</g>
</svg>
