<svg xmlns="http://www.w3.org/2000/svg" viewBox="0 0 494.62 494.62"><defs><style>.cls-1{fill:#3329ff;}.cls-2{fill:#fff;}</style></defs><title>landing</title><g id="Capa_2" data-name="Capa 2"><g id="Layer_1" data-name="Layer 1"><circle class="cls-1" cx="247.31" cy="247.31" r="247.31"/><path class="cls-2" d="M97,231.65c2.43-2.85,4.67-6,7.32-8.5Q132.49,196,160.8,169.09q21.65-20.65,43.35-41.23c9.59-9.13,19.09-18.39,28.74-27.44,8.5-8,20.46-7.93,29,.12,14.6,13.83,29.08,27.82,43.62,41.74.29.28.62.49,1.34,1,.09-1.32.2-2.25.2-3.18q0-18,0-36.05c0-6.81,1.85-8.92,7.72-8.93q16.2,0,32.4,0c5.54,0,7.51,2.26,7.51,8.64q0,41.14,0,82.28a6.36,6.36,0,0,0,2.09,5.14q18.5,17.47,36.9,35.08a40.79,40.79,0,0,1,4,5.34v3.85c-3.92,5.52-7.82,11.07-11.77,16.56-3.41,4.73-6.47,5.15-10.67,1.17-11.21-10.62-22.33-21.36-33.5-32Q327,207.1,312.2,193q-15.2-14.51-30.4-29-16.39-15.67-32.74-31.39c-1.27-1.23-2.18-1.26-3.48,0q-14.93,14.45-30,28.77t-29.85,28.5l-30,28.68-33.52,32c-1.29,1.23-2.54,2.53-3.91,3.63-3.14,2.55-6,2.36-8.54-1-4.37-5.8-8.53-11.81-12.78-17.73Z"/><path class="cls-2" d="M271.17,368.48v-81.7c-1.06-.05-1.84-.13-2.62-.13-14.17,0-28.33,0-42.5-.06-2.12,0-2.7.64-2.69,3.07.08,25.05,0,50.1,0,75.15v3.89H153.36c-8.65,0-13.4-5.39-13.41-15.29q0-49.41-.05-98.83a6.77,6.77,0,0,1,2.43-5.51c16.57-15.55,33.06-31.22,49.59-46.84q21.83-20.62,43.7-41.2c3.87-3.65,7.71-7.36,11.67-11.14l17.33,16.35,50.15,47.36Q334,231.79,353.19,250a5.46,5.46,0,0,1,1.42,3.48q.11,50.65,0,101.31c0,8.14-4.91,13.8-11.95,13.83-23.37.11-46.74,0-70.11,0A12.6,12.6,0,0,1,271.17,368.48Z"/></g></g></svg>