<svg xmlns="http://www.w3.org/2000/svg" viewBox="0 0 494.62 494.62"><defs><style>.cls-1{fill:#3329ff;}.cls-2{fill:#fff;}</style></defs><title>prototyping</title><g id="Capa_2" data-name="Capa 2"><g id="Layer_1" data-name="Layer 1"><circle class="cls-1" cx="247.31" cy="247.31" r="247.31"/><path class="cls-2" d="M303.21,167.38l-14.87-25.9c-1.9-3.31-6.84-3.79-10.15-1.89l-14.89,8.55-.07,0a100.62,100.62,0,0,0-22.92-17.9l4.43-16.67a6.91,6.91,0,0,0-4.86-8.48l-28.82-7.8a6.89,6.89,0,0,0-8.46,4.86l-4.46,16.56,0,0c-9.59-.33-18.11.15-28.65,3.52L161,107.43a7.41,7.41,0,0,0-9.81-2.71l-25.9,14.87c-3.31,1.9-3,5.65-1.08,9l8.55,14.89,0,.07a81.71,81.71,0,0,0-18.46,23.25l-17.23-4.1a6.91,6.91,0,0,0-8.47,4.87l-7.79,28.84a6.94,6.94,0,0,0,4.88,8.5l16.6,4.52.12.1a80.39,80.39,0,0,0,3.67,28.92L91.22,247c-3.31,1.9-3.79,5.31-1.89,8.62l14.87,25.9c1.9,3.31,4.83,4.17,8.14,2.27l14.89-8.55.07,0a80,80,0,0,0,23.1,18.18l-4.25,17a6.91,6.91,0,0,0,4.89,8.46l28.87,7.77a7,7,0,0,0,8.57-4.92l4.66-16.68.38-.28a84,84,0,0,0,29.49-4l8.55,14.89c1.9,3.31,4.5,5,7.81,3.08l25.9-14.87c3.31-1.9,5-6,3.08-9.33l-8.55-14.89,0-.07c8.3-7.28,12.87-14.14,17.62-22.77l16.39,4.58a6.91,6.91,0,0,0,8.47-4.88L310,227.52a7,7,0,0,0-4.9-8.53l-16.64-4.6-.21-.25a82.22,82.22,0,0,0-3.84-29.21l14.89-8.55C302.63,174.47,305.11,170.69,303.21,167.38ZM161.62,185.14a43.1,43.1,0,0,1,31.69-16.35q1,0,2.08,0h1q1,0,2.07.1t2.06.2l1,.14q2,.3,4.05.79l1,.26q1,.27,2,.59l1,.33q1,.34,1.93.73l1,.4c.45.19.89.4,1.33.6s1,.48,1.48.73,1.22.65,1.82,1q1.2.7,2.35,1.48c.38.26.77.52,1.14.79q.85.61,1.67,1.27,1.23,1,2.39,2.06.78.72,1.52,1.48a43.18,43.18,0,0,1,12.13,26.92q.11,1.56.11,3.12,0,1-.05,2.07t-.15,2.06a43.21,43.21,0,0,1-.81,5.1q-.22,1-.49,2-.4,1.49-.91,3-.34,1-.73,1.93-.19.48-.4,1-.41.95-.87,1.88-.68,1.39-1.47,2.74-.52.9-1.09,1.77a43.11,43.11,0,0,1-30.83,19.23q-1,.13-2.08.2a43,43,0,0,1-6.23,0q-1-.08-2.06-.2l-1-.14q-1.53-.22-3-.56a43,43,0,0,1-33.73-44.19q.06-1.2.19-2.39a43.26,43.26,0,0,1,2.89-11.54q.19-.48.4-1,.41-.95.87-1.88t1-1.84q1-1.82,2.18-3.54c.26-.37.52-.74.79-1.11S161.32,185.52,161.62,185.14Z"/><path class="cls-2" d="M393.41,273.45l-14.79-11.5c-1.89-1.47-4.87-.58-6.34,1.31l-6.61,8.5,0,0a63.12,63.12,0,0,0-17.56-4.94l-1.39-10.73a4.33,4.33,0,0,0-4.84-3.76l-18.58,2.32a4.32,4.32,0,0,0-3.76,4.83l1.35,10.67,0,0a49.36,49.36,0,0,0-15.8,8.85l-8.5-6.61a4.64,4.64,0,0,0-6.34.76L278.75,288c-1.47,1.89-.39,4,1.5,5.46l8.5,6.61,0,0A51.26,51.26,0,0,0,283.61,318l-11,1.71a4.33,4.33,0,0,0-3.76,4.84l2.33,18.59a4.35,4.35,0,0,0,4.85,3.77l10.71-1.32.1,0a50.43,50.43,0,0,0,9,15.92l-6.61,8.5c-1.47,1.89-.94,4,1,5.45L305,387c1.89,1.47,3.8,1.27,5.27-.62l6.61-8.5,0,0a50.21,50.21,0,0,0,17.73,5.06l1.56,10.85a4.34,4.34,0,0,0,4.85,3.75l18.61-2.35a4.41,4.41,0,0,0,3.8-4.89l-1.26-10.79.15-.26a52.69,52.69,0,0,0,16.17-9.33l8.5,6.61c1.89,1.47,3.8,1.82,5.26-.07l11.5-14.79a4.38,4.38,0,0,0-.43-6.15l-8.5-6.61,0,0a48.09,48.09,0,0,0,4.82-17.41l10.6-1.24a4.34,4.34,0,0,0,3.76-4.85l-2.34-18.6a4.38,4.38,0,0,0-4.87-3.79L396,304.24l-.18-.1a51.57,51.57,0,0,0-9.18-16l6.61-8.5C394.75,277.7,395.3,274.92,393.41,273.45Zm-78,44a27,27,0,0,1,14.51-17q.59-.28,1.2-.52l.61-.24q.61-.23,1.23-.43t1.24-.37l.63-.16q1.26-.31,2.54-.5l.64-.09q.64-.08,1.29-.13l.65,0q.65,0,1.29,0h.65l.91,0,1,.07q.65.06,1.29.15.86.12,1.72.3l.85.19q.64.15,1.27.34.95.28,1.88.63.62.23,1.23.5a27.09,27.09,0,0,1,13.44,12.74q.44.88.81,1.78.25.6.46,1.22t.4,1.23a27.11,27.11,0,0,1,.74,3.15q.11.64.19,1.28.12,1,.17,1.93,0,.65,0,1.29,0,.32,0,.65,0,.65-.06,1.3-.06,1-.2,1.94-.09.65-.21,1.29a27,27,0,0,1-13.32,18.49q-.57.32-1.16.61a27,27,0,0,1-3.62,1.48q-.62.2-1.24.37l-.63.16q-.94.23-1.9.4a26.94,26.94,0,0,1-30.08-17.63q-.25-.71-.46-1.43A27.14,27.14,0,0,1,314.4,325q0-.32,0-.65,0-.65.06-1.3t.12-1.29q.15-1.29.42-2.57c.06-.28.13-.56.19-.83S315.35,317.71,315.43,317.42Z"/></g></g></svg>