<?xml version="1.0" encoding="utf-8"?>
<!-- Generator: Adobe Illustrator 21.0.0, SVG Export Plug-In . SVG Version: 6.00 Build 0)  -->
<svg version="1.1" id="Capa_1" xmlns="http://www.w3.org/2000/svg" xmlns:xlink="http://www.w3.org/1999/xlink" x="0px" y="0px"
	 viewBox="0 0 478.7 478.7" style="enable-background:new 0 0 478.7 478.7;" xml:space="preserve">
<style type="text/css">
	.st0{fill:#3329FF;}
</style>
<g>
	<g>
		<path class="st0" d="M452.9,189.4l-33.5-5.7c-3.5-11.2-8-22.2-13.5-32.5l19.7-27.5c8.3-11.7,7-27.8-3.2-37.8l-29.7-29.7
			c-5.5-5.5-13-8.7-20.8-8.7c-6.2,0-12,1.8-17,5.5l-27.7,19.7c-10.7-5.7-22-10.3-33.7-13.8l-5.5-33c-2.3-14.2-14.7-24.5-29-24.5
			h-41.8c-14.5,0-26.7,10.3-29,24.5l-5.8,33.8c-11.2,3.5-22,8-32.3,13.7l-27.3-19.7c-5-3.5-11-5.5-17.2-5.5
			c-7.8,0-15.3,3.2-20.8,8.7L55.4,86.4c-10.2,10.2-11.5,26.2-3.2,37.8l19.8,28c-5.5,10.5-9.8,21.3-13.2,32.5l-33,5.5
			c-14.2,2.3-24.5,14.7-24.5,29v41.8c0,14.5,10.3,26.7,24.5,29l33.8,5.8c3.5,11.2,8,22,13.7,32.3l-19.7,27.3
			c-8.3,11.7-7,27.8,3.2,37.8L86.5,423c5.5,5.5,13,8.7,20.8,8.7c6.2,0,12-1.8,17-5.5l28-19.8c10,5.3,20.7,9.5,31.5,13l5.5,33.5
			c2.3,14.2,14.7,24.5,29,24.5h42c14.5,0,26.7-10.3,29-24.5l5.7-33.5c11.2-3.5,22.2-8,32.5-13.5l27.5,19.7c5,3.5,11,5.5,17.2,5.5
			l0,0c7.8,0,15.2-3.2,20.8-8.7l29.7-29.7c10.2-10.2,11.5-26.2,3.2-37.8l-19.7-27.7c5.5-10.5,10-21.3,13.5-32.5l33.5-5.5
			c14.2-2.3,24.5-14.7,24.5-29v-41.8C477.4,203.9,467.1,191.7,452.9,189.4z M450.6,260.2c0,1.3-0.8,2.3-2.2,2.7l-41.8,7
			c-5.3,0.8-9.5,4.8-10.7,9.8c-3.8,14.7-9.5,28.7-17.3,41.7c-2.7,4.5-2.5,10.2,0.7,14.7l24.5,34.7c0.7,1,0.7,2.5-0.3,3.3l-29.7,29.7
			c-0.7,0.7-1.3,0.8-1.8,0.8c-0.7,0-1.2-0.2-1.5-0.5L336,379.5c-4.3-3.2-10-3.3-14.7-0.7c-13,7.8-27,13.5-41.7,17.3
			c-5.2,1.3-9,5.5-9.8,10.7l-7,41.8c-0.2,1.3-1.3,2.2-2.7,2.2h-41.8c-1.3,0-2.3-0.8-2.7-2.2l-7-41.8c-0.8-5.3-4.8-9.5-9.8-10.7
			c-14.2-3.7-28-9.3-40.8-16.7c-2.2-1.2-4.5-1.8-6.8-1.8c-2.7,0-5.5,0.8-7.8,2.5L108.5,405c-0.5,0.3-1,0.5-1.5,0.5
			c-0.3,0-1.2-0.2-1.8-0.8L75.5,375c-0.8-0.8-1-2.3-0.3-3.3l24.5-34.3c3.2-4.3,3.3-10.2,0.7-14.7c-7.8-13-13.7-27-17.5-41.5
			c-1.3-5-5.5-9-10.7-9.8l-42-7.2c-1.3-0.2-2.2-1.3-2.2-2.7v-41.8c0-1.3,0.8-2.3,2.2-2.7l41.5-7c5.3-0.8,9.5-4.8,10.8-10
			c3.7-14.7,9.3-28.7,17-41.8c2.7-4.5,2.3-10.2-0.7-14.5l-24.8-35c-0.7-1-0.7-2.5,0.3-3.3L104,75.8c0.7-0.7,1.3-0.8,1.8-0.8
			c0.7,0,1.2,0.2,1.5,0.5l34.3,24.5c4.3,3.2,10.2,3.3,14.7,0.7c13-7.8,27-13.7,41.5-17.5c5-1.3,9-5.5,9.8-10.7l7.2-42
			c0.2-1.3,1.3-2.2,2.7-2.2h41.8c1.3,0,2.3,0.8,2.7,2.2l7,41.5c0.8,5.3,4.8,9.5,10,10.8c15,3.8,29.3,9.7,42.7,17.5
			c4.5,2.7,10.2,2.5,14.7-0.7l34.3-24.7c0.5-0.3,1-0.5,1.5-0.5c0.3,0,1.2,0.2,1.8,0.8l29.7,29.7c0.8,0.8,1,2.3,0.3,3.3l-24.5,34.5
			c-3.2,4.3-3.3,10-0.7,14.7c7.8,13,13.5,27,17.3,41.7c1.3,5.2,5.5,9,10.7,9.8l41.8,7c1.3,0.2,2.2,1.3,2.2,2.7L450.6,260.2
			L450.6,260.2z"/>
		<path class="st0" d="M239.3,136.6c-56.7,0-102.8,46-102.8,102.8s46,102.8,102.8,102.8s102.8-46,102.8-102.8S296,136.6,239.3,136.6
			z M239.3,315.2c-41.8,0-75.8-34-75.8-75.8s34-75.8,75.8-75.8s75.8,34,75.8,75.8S281.2,315.2,239.3,315.2z"/>
	</g>
</g>
</svg>
