<?xml version="1.0" encoding="utf-8"?>
<!-- Generator: Adobe Illustrator 21.0.0, SVG Export Plug-In . SVG Version: 6.00 Build 0)  -->
<svg version="1.1" id="Capa_1" xmlns="http://www.w3.org/2000/svg" xmlns:xlink="http://www.w3.org/1999/xlink" x="0px" y="0px"
	 viewBox="0 0 478.7 478.7" style="enable-background:new 0 0 478.7 478.7;" xml:space="preserve">
<style type="text/css">
	.st0{fill:#3329FF;}
	.st1{fill:#FFFFFF;}
</style>
<circle class="st0" cx="239.1" cy="239.1" r="238.1"/>
<g>
	<g>
		<path class="st1" d="M367.6,209.4l-20.1-3.4c-2.1-6.7-4.8-13.3-8.1-19.5l11.8-16.5c5-7,4.2-16.7-1.9-22.7l-17.8-17.8
			c-3.3-3.3-7.8-5.2-12.5-5.2c-3.7,0-7.2,1.1-10.2,3.3l-16.6,11.8c-6.4-3.4-13.2-6.2-20.2-8.3l-3.3-19.8
			c-1.4-8.5-8.8-14.7-17.4-14.7h-25.1c-8.7,0-16,6.2-17.4,14.7l-3.5,20.3c-6.7,2.1-13.2,4.8-19.4,8.2l-16.4-11.8
			c-3-2.1-6.6-3.3-10.3-3.3c-4.7,0-9.2,1.9-12.5,5.2L129,147.6c-6.1,6.1-6.9,15.7-1.9,22.7l11.9,16.8c-3.3,6.3-5.9,12.8-7.9,19.5
			l-19.8,3.3c-8.5,1.4-14.7,8.8-14.7,17.4v25.1c0,8.7,6.2,16,14.7,17.4l20.3,3.5c2.1,6.7,4.8,13.2,8.2,19.4l-11.8,16.4
			c-5,7-4.2,16.7,1.9,22.7l17.8,17.8c3.3,3.3,7.8,5.2,12.5,5.2c3.7,0,7.2-1.1,10.2-3.3l16.8-11.9c6,3.2,12.4,5.7,18.9,7.8l3.3,20.1
			c1.4,8.5,8.8,14.7,17.4,14.7h25.2c8.7,0,16-6.2,17.4-14.7l3.4-20.1c6.7-2.1,13.3-4.8,19.5-8.1l16.5,11.8c3,2.1,6.6,3.3,10.3,3.3
			l0,0c4.7,0,9.1-1.9,12.5-5.2l17.8-17.8c6.1-6.1,6.9-15.7,1.9-22.7l-11.8-16.6c3.3-6.3,6-12.8,8.1-19.5l20.1-3.3
			c8.5-1.4,14.7-8.8,14.7-17.4v-25.1C382.3,218.1,376.1,210.8,367.6,209.4z M366.2,251.9c0,0.8-0.5,1.4-1.3,1.6l-25.1,4.2
			c-3.2,0.5-5.7,2.9-6.4,5.9c-2.3,8.8-5.7,17.2-10.4,25c-1.6,2.7-1.5,6.1,0.4,8.8l14.7,20.8c0.4,0.6,0.4,1.5-0.2,2l-17.8,17.8
			c-0.4,0.4-0.8,0.5-1.1,0.5c-0.4,0-0.7-0.1-0.9-0.3l-20.7-14.7c-2.6-1.9-6-2-8.8-0.4c-7.8,4.7-16.2,8.1-25,10.4
			c-3.1,0.8-5.4,3.3-5.9,6.4l-4.2,25.1c-0.1,0.8-0.8,1.3-1.6,1.3h-25.1c-0.8,0-1.4-0.5-1.6-1.3l-4.2-25.1c-0.5-3.2-2.9-5.7-5.9-6.4
			c-8.5-2.2-16.8-5.6-24.5-10c-1.3-0.7-2.7-1.1-4.1-1.1c-1.6,0-3.3,0.5-4.7,1.5l-20.9,14.9c-0.3,0.2-0.6,0.3-0.9,0.3
			c-0.2,0-0.7-0.1-1.1-0.5l-17.8-17.8c-0.5-0.5-0.6-1.4-0.2-2l14.7-20.6c1.9-2.6,2-6.1,0.4-8.8c-4.7-7.8-8.2-16.2-10.5-24.9
			c-0.8-3-3.3-5.4-6.4-5.9l-25.2-4.3c-0.8-0.1-1.3-0.8-1.3-1.6v-25.1c0-0.8,0.5-1.4,1.3-1.6l24.9-4.2c3.2-0.5,5.7-2.9,6.5-6
			c2.2-8.8,5.6-17.2,10.2-25.1c1.6-2.7,1.4-6.1-0.4-8.7L140.2,161c-0.4-0.6-0.4-1.5,0.2-2l17.8-17.8c0.4-0.4,0.8-0.5,1.1-0.5
			c0.4,0,0.7,0.1,0.9,0.3l20.6,14.7c2.6,1.9,6.1,2,8.8,0.4c7.8-4.7,16.2-8.2,24.9-10.5c3-0.8,5.4-3.3,5.9-6.4l4.3-25.2
			c0.1-0.8,0.8-1.3,1.6-1.3h25.1c0.8,0,1.4,0.5,1.6,1.3l4.2,24.9c0.5,3.2,2.9,5.7,6,6.5c9,2.3,17.6,5.8,25.6,10.5
			c2.7,1.6,6.1,1.5,8.8-0.4l20.6-14.8c0.3-0.2,0.6-0.3,0.9-0.3c0.2,0,0.7,0.1,1.1,0.5l17.8,17.8c0.5,0.5,0.6,1.4,0.2,2l-14.7,20.7
			c-1.9,2.6-2,6-0.4,8.8c4.7,7.8,8.1,16.2,10.4,25c0.8,3.1,3.3,5.4,6.4,5.9l25.1,4.2c0.8,0.1,1.3,0.8,1.3,1.6L366.2,251.9
			L366.2,251.9z"/>
		<path class="st1" d="M239.4,177.7c-34,0-61.7,27.6-61.7,61.7s27.6,61.7,61.7,61.7s61.7-27.6,61.7-61.7S273.4,177.7,239.4,177.7z
			 M239.4,284.9c-25.1,0-45.5-20.4-45.5-45.5s20.4-45.5,45.5-45.5s45.5,20.4,45.5,45.5S264.5,284.9,239.4,284.9z"/>
	</g>
</g>
</svg>
