<?xml version="1.0" encoding="utf-8"?>
<!-- Generator: Adobe Illustrator 21.0.0, SVG Export Plug-In . SVG Version: 6.00 Build 0)  -->
<svg version="1.1" id="Capa_1" xmlns="http://www.w3.org/2000/svg" xmlns:xlink="http://www.w3.org/1999/xlink" x="0px" y="0px"
	 viewBox="0 0 467.5 467.5" style="enable-background:new 0 0 467.5 467.5;" xml:space="preserve">
<style type="text/css">
	.st0{fill:#3329FF;}
</style>
<g>
	<path class="st0" d="M436.9,235.4c-0.7-3.8-2.9-7-6.3-8.9c-75.4-44.9-119.7-54.2-151.9-61c-4.2-0.9-8.2-1.7-12.1-2.6l-14-115.1
		c-0.4-25.4-21.3-46.1-46.8-46.1c-25.2,0-45.5,19.4-46.8,44.5c0,0.4-0.1,0.9-0.1,1.5v67.7l-1,165.2L140,266.8
		c-3.5-2.9-27.7-22.5-57.6-22.5c-20.3,0-38.2,8.6-53.4,25.2c-4.2,4.7-4.7,11.7-1,16.8c1.3,1.7,32.1,44.9,80.2,88.7
		c28.6,26,57.3,46.7,85.5,61.7c35.9,19.1,71,28.9,104.4,29.2c0.4,0,1,0,1.6,0l0,0c45.6,0,81.2-15,105.6-44.8
		C459.7,354.8,437.8,240.2,436.9,235.4z M384.6,404c-19.1,23.2-47.7,34.9-84.9,34.9c-0.4,0-0.9,0-1.5,0
		c-66.3-0.4-130.1-45.6-171.8-83.4c-33.2-30.2-58.3-60.5-69.8-75.4c7.9-6.1,16.3-9,25.7-9c21.6,0,40.2,16,40.2,16.2
		c0.1,0.1,0.4,0.4,0.7,0.6l39.5,30.5c4.1,3.1,9.5,3.6,14.1,1.5c4.5-2.2,7.4-6.9,7.6-12l1.3-192.3V48.5c0-0.1,0-0.3,0-0.4
		c0.3-10.9,9.2-19.4,20-19.4c11.1,0,20,9,20,20c0,0.4,0,1,0.1,1.6l15,125c0.7,5.4,4.5,9.9,9.8,11.4c7.1,1.9,14.4,3.5,22.3,5.1
		c31.4,6.6,70.3,14.7,138.5,54.7C415.1,269.2,424.7,355.3,384.6,404z"/>
</g>
</svg>
