<svg xmlns="http://www.w3.org/2000/svg" xmlns:xlink="http://www.w3.org/1999/xlink" viewBox="0 0 435.71 402.81"><defs><style>.cls-1{fill:url(#Degradado_sin_nombre);}.cls-2{fill:url(#Degradado_sin_nombre_2);}.cls-3{fill:url(#Degradado_sin_nombre_3);}.cls-4{fill:#fff;}</style><linearGradient id="Degradado_sin_nombre" x1="-462.4" y1="587.68" x2="-462.4" y2="586.68" gradientTransform="matrix(435.71, 0, 0, -292.81, 201689.6, 172188.15)" gradientUnits="userSpaceOnUse"><stop offset="0" stop-color="#5c24ae"/><stop offset="1" stop-color="#30135a"/></linearGradient><linearGradient id="Degradado_sin_nombre_2" x1="-462.4" y1="587.85" x2="-462.4" y2="586.68" gradientTransform="matrix(435.71, 0, 0, -292.81, 201689.6, 172133.13)" gradientUnits="userSpaceOnUse"><stop offset="0" stop-color="#7331d4"/><stop offset="1" stop-color="#461b84"/></linearGradient><linearGradient id="Degradado_sin_nombre_3" x1="-462.4" y1="587.68" x2="-462.4" y2="586.68" gradientTransform="matrix(435.71, 0, 0, -292.81, 201689.6, 172078.13)" gradientUnits="userSpaceOnUse"><stop offset="0" stop-color="#905bdd"/><stop offset="1" stop-color="#5521a0"/></linearGradient></defs><title>bootstrap-logo</title><g id="Capa_2" data-name="Capa 2"><g id="Capa_1-2" data-name="Capa 1"><path id="b" d="M177.6,121.16l-161,108.2c-22.14,14.88-22.14,39.22,0,54.1l161,108.2c22.14,14.88,58.36,14.88,80.5,0l161-108.2c22.14-14.88,22.14-39.22,0-54.1l-161-108.2c-22.14-14.88-58.36-14.88-80.5,0Z"/><path id="b-2" data-name="b" class="cls-1" d="M177.6,121.16l-161,108.2c-22.14,14.88-22.14,39.22,0,54.1l161,108.2c22.14,14.88,58.36,14.88,80.5,0l161-108.2c22.14-14.88,22.14-39.22,0-54.1l-161-108.2c-22.14-14.88-58.36-14.88-80.5,0Z"/><path id="e" d="M177.6,66.16l-161,108.2c-22.14,14.88-22.14,39.22,0,54.1l161,108.2c22.14,14.88,58.36,14.88,80.5,0l161-108.2c22.14-14.88,22.14-39.22,0-54.1l-161-108.2c-22.14-14.88-58.36-14.88-80.5,0Z"/><path id="e-2" data-name="e" class="cls-2" d="M177.6,66.16l-161,108.2c-22.14,14.88-22.14,39.22,0,54.1l161,108.2c22.14,14.88,58.36,14.88,80.5,0l161-108.2c22.14-14.88,22.14-39.22,0-54.1l-161-108.2c-22.14-14.88-58.36-14.88-80.5,0Z"/><path id="h" d="M177.6,11.16l-161,108.2c-22.14,14.88-22.14,39.22,0,54.1l161,108.2c22.14,14.88,58.36,14.88,80.5,0l161-108.2c22.14-14.88,22.14-39.22,0-54.1l-161-108.2c-22.14-14.88-58.36-14.88-80.5,0Z"/><path id="h-2" data-name="h" class="cls-3" d="M177.6,11.16l-161,108.2c-22.14,14.88-22.14,39.22,0,54.1l161,108.2c22.14,14.88,58.36,14.88,80.5,0l161-108.2c22.14-14.88,22.14-39.22,0-54.1l-161-108.2c-22.14-14.88-58.36-14.88-80.5,0Z"/><path class="cls-4" d="M241.26,212.09,116.14,128l49-32.92c21.42-14.39,48.39-15.74,67.12-3.16,13,8.75,15.61,23.31,5.72,32.86l.69.47c19.16-10,42.05-9.26,58.7,1.92,22,14.8,19.34,34.21-7.28,52.1l-48.83,32.81Zm-55.58-58.33,25-16.78c18.47-12.41,21.15-24.12,7.61-33.23-12.4-8.33-27.74-7.23-42.93,3l-29.82,20Zm88.27,17.83c18.82-12.64,21.07-24.42,6.6-34.14s-32.08-7.81-52,5.59L199.13,162.8l44,29.54,30.85-20.75Z"/></g></g></svg>