<svg xmlns="http://www.w3.org/2000/svg" viewBox="0 0 219.81 114.13"><defs><style>.cls-1{fill:#204a87;}.cls-2{fill:#00546b;}.cls-3{fill:#f57900;}</style></defs><title>mysql-logo</title><g id="Capa_2" data-name="Capa 2"><g id="Capa_2-2" data-name="Capa 2"><path id="path12-0" class="cls-1" d="M0,104H7.25V75.24l11.33,25.06c1.28,3,3.13,4.13,6.7,4.13s5.3-1.12,6.64-4.13L43.19,75.24V104H50.5V75.24c0-2.79-1.12-4.13-3.46-4.85-5.52-1.67-9.21-.22-10.88,3.52L25.06,98.68,14.34,73.9C12.72,70.16,9,68.71,3.4,70.38,1.12,71.11,0,72.45,0,75.24V104H0Z"/><path id="path14-5" class="cls-1" d="M56.53,80.6h7.31V96.39c-.06.89.28,2.9,4.24,3,2.06.06,15.74,0,15.85,0V80.48h7.31v25.84c0,6.36-7.87,7.76-11.55,7.81h-23v-4.85h23c4.69-.5,4.13-2.85,4.13-3.63v-1.9H68.41c-7.2-.06-11.83-3.24-11.89-6.86,0-.34.17-16.18,0-16.29h0Z"/><path id="path16-3" class="cls-1" d="M213.34,62.29c-4.46-.11-7.92.34-10.83,1.56-.84.33-2.18.34-2.29,1.4.45.45.5,1.17.89,1.79a13.07,13.07,0,0,0,2.9,3.4c1.17.89,2.34,1.79,3.57,2.57,2.18,1.34,4.63,2.12,6.75,3.46,1.23.78,2.46,1.79,3.68,2.62.61.45,1,1.17,1.79,1.45v-.17c-.39-.5-.5-1.23-.89-1.79-.56-.56-1.12-1.06-1.67-1.62a26.47,26.47,0,0,0-5.8-5.64c-1.79-1.23-5.69-2.9-6.42-5l-.11-.11a22.68,22.68,0,0,0,3.85-.89c1.9-.5,3.63-.39,5.58-.89.89-.22,1.79-.5,2.68-.78v-.5c-1-1-1.73-2.34-2.79-3.29A74.38,74.38,0,0,0,205,53c-1.73-1.12-4-1.84-5.8-2.79-.67-.34-1.79-.5-2.18-1.06a22.53,22.53,0,0,1-2.29-4.3c-1.62-3.07-3.18-6.47-4.58-9.71a59.42,59.42,0,0,0-2.85-6.36c-5.75-9.49-12-15.23-21.6-20.87a26.82,26.82,0,0,0-7.14-2.29c-1.39-.06-2.79-.17-4.19-.22a22.22,22.22,0,0,1-2.57-2c-3.18-2-11.38-6.36-13.73-.61-1.51,3.63,2.23,7.2,3.52,9a26.31,26.31,0,0,1,2.85,4.19c.39.95.5,2,.89,3a67,67,0,0,0,2.9,7.48A27,27,0,0,0,150.33,30c.45.61,1.23.89,1.4,1.9-.78,1.12-.84,2.79-1.28,4.19-2,6.31-1.23,14.12,1.62,18.75.89,1.39,3,4.46,5.86,3.29,2.51-1,2-4.19,2.68-7,.17-.67.06-1.12.39-1.56,0,.06,0,.11,0,.11.78,1.56,1.56,3.07,2.29,4.63a31.86,31.86,0,0,0,7.25,7.48c1.34,1,2.4,2.73,4.07,3.35V65h-.11a6.16,6.16,0,0,0-1.28-1.12,27.09,27.09,0,0,1-2.9-3.35,71.78,71.78,0,0,1-6.25-10.16c-.89-1.73-1.67-3.63-2.4-5.36-.34-.67-.34-1.67-.89-2-.84,1.23-2.06,2.29-2.68,3.79-1.06,2.4-1.17,5.36-1.56,8.43-.22.06-.11,0-.22.11-1.79-.45-2.4-2.29-3.07-3.85a24.14,24.14,0,0,1-.5-14.9c.39-1.17,2.06-4.85,1.4-6-.33-1.06-1.45-1.67-2.06-2.51a22.49,22.49,0,0,1-2-3.57c-1.34-3.12-2-6.58-3.46-9.71a29.71,29.71,0,0,0-2.79-4.3c-1.06-1.51-2.23-2.57-3.07-4.35-.28-.61-.67-1.62-.22-2.29a.89.89,0,0,1,.78-.73c.73-.61,2.79.17,3.52.5a28.45,28.45,0,0,1,5.52,2.79c.78.56,1.62,1.62,2.62,1.9h1.17c1.79.39,3.79.11,5.47.61a35.66,35.66,0,0,1,8,3.85A49.51,49.51,0,0,1,185,31.88c.67,1.28.95,2.46,1.56,3.79,1.17,2.73,2.62,5.52,3.79,8.2a36.69,36.69,0,0,0,4,7.48c.84,1.17,4.19,1.79,5.69,2.4a39.59,39.59,0,0,1,3.85,1.56c1.9,1.17,3.79,2.51,5.58,3.79.89.67,3.68,2.06,3.85,3.18h0Z"/><path id="path18-4" class="cls-2" d="M156.42,13.8a8.83,8.83,0,0,0-2.29.28v.11h.11A18,18,0,0,0,156,16.48c.45.89.84,1.79,1.28,2.68l.11-.11a3.15,3.15,0,0,0,1.17-2.79,12.49,12.49,0,0,1-.67-1.17c-.33-.56-1.06-.84-1.51-1.28h0Z"/><path id="path20-1" class="cls-3" d="M96.82,104h21a15.94,15.94,0,0,0,6.7-1.4c3.18-1.45,4.69-3.4,4.69-6V91.25c0-2.06-1.73-4-5.19-5.36a18.26,18.26,0,0,0-6.19-1.06H109c-3,0-4.35-.89-4.74-2.85a2.71,2.71,0,0,1-.06-.67V78a2.49,2.49,0,0,1,.06-.61c.39-1.51,1.17-1.9,3.74-2.18h21.48V70.38H109a18.88,18.88,0,0,0-5.91.61c-4.3,1.34-6.19,3.46-6.19,7.2v4.24c0,3.29,3.68,6.08,9.93,6.75.67.06,1.4.06,2.12.06h7.53a3.43,3.43,0,0,1,.78.06c2.29.22,3.29.61,4,1.45a1.69,1.69,0,0,1,.56,1.34v4.24a2.48,2.48,0,0,1-1,1.73,5.19,5.19,0,0,1-3.13,1c-.28,0-.45.06-.73.06H96.82V104h0Z"/><path id="path22-0" class="cls-3" d="M174.61,95.55c0,5,3.74,7.76,11.22,8.31.73.06,1.4.11,2.12.11h19V99.12H187.78c-4.24,0-5.86-1.06-5.86-3.63V70.38h-7.31V95.55h0Z"/><path id="path24-4" class="cls-3" d="M133.82,95.77V78.48c0-4.41,3.12-7.09,9.21-7.92.67-.06,1.34-.11,2-.11h13.84c.73,0,1.34.06,2.06.11,6.08.84,9.15,3.52,9.15,7.92v17.3c0,3.57-1.28,5.47-4.3,6.75l7.14,6.47h-8.43l-5.8-5.25-5.86.33H145a17.05,17.05,0,0,1-4.24-.56c-4.63-1.28-6.92-3.74-6.92-7.76h0Zm7.87-.39a4.39,4.39,0,0,0,.17.73c.39,2,2.29,3.12,5.19,3.12h6.58l-6-5.47H156l5.3,4.8a3.49,3.49,0,0,0,1.84-2.34,3.19,3.19,0,0,0,.06-.73V78.92a2.72,2.72,0,0,0-.06-.67c-.39-1.9-2.29-3-5.13-3H147c-3.24,0-5.36,1.4-5.36,3.63V95.38h0Z"/><path id="path26-8" class="cls-3" d="M210.27,104h1.06V100h1.4v-.84h-3.91V100h1.45V104Zm8.09,0h1V99.12h-1.51l-1.23,3.35-1.34-3.35h-1.45V104h.95v-3.74h.06l1.4,3.74H217l1.4-3.74V104Z"/></g></g></svg>