<?xml version="1.0" encoding="utf-8"?>
<!-- Generator: Adobe Illustrator 21.0.0, SVG Export Plug-In . SVG Version: 6.00 Build 0)  -->
<svg version="1.1" id="Capa_1" xmlns="http://www.w3.org/2000/svg" xmlns:xlink="http://www.w3.org/1999/xlink" x="0px" y="0px"
	 viewBox="0 0 16 16" style="enable-background:new 0 0 16 16;" xml:space="preserve">
<style type="text/css">
	.st0{fill:#3329FF;}
</style>
<path class="st0" d="M3.5,15C2.7,15,2,14.3,2,13.5V7h1v6.5C3,13.8,3.2,14,3.5,14H6v-4c0-0.3,0.2-0.5,0.5-0.5h3C9.8,9.5,10,9.7,10,10
	v4h2.5c0.3,0,0.5-0.2,0.5-0.5V7h1v6.5c0,0.8-0.7,1.5-1.5,1.5h-3C9.2,15,9,14.8,9,14.5v-4H7v4C7,14.8,6.8,15,6.5,15 M6,14 M13,2.5V6
	l-2-2V2.5C11,2.2,11.2,2,11.5,2h1C12.8,2,13,2.2,13,2.5z"/>
<path class="st0" d="M7.3,1.5c0.4-0.4,1-0.4,1.4,0l6.6,6.6c0.2,0.2,0.2,0.5,0,0.7s-0.5,0.2-0.7,0L8,2.2L1.4,8.9C1.2,9,0.8,9,0.6,8.9
	s-0.2-0.5,0-0.7L7.3,1.5z"/>
</svg>
