<svg xmlns="http://www.w3.org/2000/svg" xmlns:xlink="http://www.w3.org/1999/xlink" viewBox="0 0 70.79 295.62"><defs><style>.cls-1{fill:#05057d;}.cls-2{fill:#07089e;}.cls-3{fill:url(#Degradado_sin_nombre);}.cls-4{fill:#0a0ac2;}.cls-5{fill:#0707a5;}.cls-6{fill:#3329ff;}</style><linearGradient id="Degradado_sin_nombre" x1="40.69" y1="118.28" x2="40.69" y2="317.62" gradientTransform="matrix(1, 0, 0, -1, 0, 368)" gradientUnits="userSpaceOnUse"><stop offset="0" stop-color="#0709b3"/><stop offset="1" stop-color="#030663"/></linearGradient></defs><title>icon-right.svg</title><g id="Capa_2" data-name="Capa 2"><g id="Capa_1-2" data-name="Capa 1"><polygon class="cls-1" points="0 28.37 16.53 39.68 70.79 11.31 54.25 0 0 28.37"/><polygon class="cls-2" points="16.53 68.03 0 56.71 0 28.37 16.53 39.68 16.53 68.03"/><polygon class="cls-3" points="32.47 238.41 49 249.72 49 50.38 32.37 59.45 32.47 238.41"/><polygon class="cls-4" points="0 256.08 16.53 267.4 16.53 295.62 0 284.31 0 256.08"/><polygon class="cls-5" points="32.47 238.41 0 256.08 16.53 267.4 49 249.72 32.47 238.41"/><polygon class="cls-6" points="49 50.38 49 249.72 16.53 267.4 16.53 295.62 70.79 267.28 70.79 11.31 16.53 39.68 16.53 68.03 49 50.38"/></g></g></svg>