<svg xmlns="http://www.w3.org/2000/svg" viewBox="0 0 75.77 76.25"><defs><style>.cls-1{fill:#069;}.cls-2{fill:#fff;}</style></defs><title>linkedin</title><g id="Capa_2" data-name="Capa 2"><g id="svg3070"><path id="path14" class="cls-1" d="M0,5.46A5.53,5.53,0,0,1,5.6,0H70.17a5.53,5.53,0,0,1,5.6,5.46V70.79a5.53,5.53,0,0,1-5.6,5.46H5.6A5.53,5.53,0,0,1,0,70.79Z"/><path id="path28" class="cls-2" d="M23,63.83V29.4H11.52V63.83ZM17.25,24.7c4,0,6.47-2.64,6.47-5.95s-2.48-5.95-6.4-5.95-6.47,2.57-6.47,5.95,2.48,5.95,6.32,5.95h.07Z"/><path id="path30" class="cls-2" d="M29.3,63.83H40.74V44.6a7.84,7.84,0,0,1,.38-2.79A6.26,6.26,0,0,1,47,37.62c4.14,0,5.8,3.16,5.8,7.79V63.83H64.23V44.09c0-10.58-5.65-15.5-13.18-15.5a11.4,11.4,0,0,0-10.39,5.8h.08v-5H29.3c.15,3.23,0,34.43,0,34.43Z"/></g></g></svg>