<svg xmlns="http://www.w3.org/2000/svg" viewBox="0 0 62.86 44"><defs><style>.cls-1{fill:red;}.cls-2{fill:#fff;}</style></defs><g id="Capa_2" data-name="Capa 2"><g id="Capa_1-2" data-name="Capa 1"><path class="cls-1" d="M61.55,6.87A7.89,7.89,0,0,0,56,1.31C51.09,0,31.43,0,31.43,0S11.78,0,6.87,1.31A7.89,7.89,0,0,0,1.31,6.87C0,11.77,0,22,0,22S0,32.23,1.31,37.13a7.89,7.89,0,0,0,5.56,5.56C11.78,44,31.43,44,31.43,44S51.09,44,56,42.69a7.89,7.89,0,0,0,5.56-5.56C62.86,32.23,62.86,22,62.86,22S62.86,11.77,61.55,6.87Z"/><polygon class="cls-2" points="25.15 31.43 41.48 22 25.15 12.57 25.15 31.43"/></g></g></svg>