<?xml version="1.0" encoding="utf-8"?>
<!-- Generator: Adobe Illustrator 21.0.0, SVG Export Plug-In . SVG Version: 6.00 Build 0)  -->
<svg version="1.1" id="Capa_1" xmlns="http://www.w3.org/2000/svg" xmlns:xlink="http://www.w3.org/1999/xlink" x="0px" y="0px"
	 viewBox="0 0 481.6 481.6" style="enable-background:new 0 0 481.6 481.6;" xml:space="preserve">
<style type="text/css">
	.st0{fill:#3329FF;}
	.st1{fill:#FFFFFF;}
</style>
<circle class="st0" cx="241.1" cy="241.1" r="238.1"/>
<g>
	<path class="st1" d="M348.4,112.5H133.2c-19.4,0-35.2,15.8-35.2,35.2v136.5c0,19.4,15.8,35.2,35.2,35.2h99.6v33.6h-49.7
		c-4.4,0-8,3.6-8,8c0,4.4,3.6,8,8,8h115.3c4.4,0,8-3.6,8-8c0-4.4-3.6-8-8-8h-49.7v-33.6h99.6c19.4,0,35.2-15.8,35.2-35.2V147.7
		C383.7,128.3,367.9,112.5,348.4,112.5z M133.2,128.5h215.3c10.6,0,19.2,8.6,19.2,19.2v114.1H114V147.7
		C114,137.1,122.6,128.5,133.2,128.5z M348.4,303.4H133.2c-10.6,0-19.2-8.6-19.2-19.2v-6.4h253.7v6.4
		C367.6,294.8,359,303.4,348.4,303.4z"/>
</g>
</svg>
