<?xml version="1.0" encoding="utf-8"?>
<!-- Generator: Adobe Illustrator 21.0.0, SVG Export Plug-In . SVG Version: 6.00 Build 0)  -->
<svg version="1.1" id="Capa_1" xmlns="http://www.w3.org/2000/svg" xmlns:xlink="http://www.w3.org/1999/xlink" x="0px" y="0px"
	 viewBox="0 0 486.6 486.6" style="enable-background:new 0 0 486.6 486.6;" xml:space="preserve">
<style type="text/css">
	.st0{fill:#3329FF;}
	.st1{fill:#FFFFFF;}
</style>
<circle class="st0" cx="243.1" cy="243.1" r="238.1"/>
<g>
	<path class="st1" d="M181.9,292h169.4c19.2,0,34.9-15.7,34.9-34.9v-71.3c0-0.1,0-0.2,0-0.3c0-0.2,0-0.3,0-0.5c0-0.1,0-0.3-0.1-0.4
		c0-0.1-0.1-0.3-0.1-0.4s-0.1-0.3-0.1-0.4c-0.1-0.1-0.1-0.3-0.1-0.4c-0.1-0.1-0.1-0.3-0.1-0.4c-0.1-0.1-0.1-0.3-0.1-0.4
		c-0.1-0.1-0.1-0.3-0.2-0.4c-0.1-0.1-0.1-0.3-0.2-0.3c-0.1-0.1-0.1-0.3-0.2-0.4c-0.1-0.1-0.1-0.2-0.2-0.3c-0.1-0.1-0.2-0.3-0.3-0.4
		c-0.1-0.1-0.1-0.2-0.3-0.3c-0.1-0.1-0.2-0.2-0.3-0.3s-0.2-0.2-0.3-0.3c-0.1-0.1-0.2-0.2-0.3-0.3c-0.1-0.1-0.2-0.2-0.3-0.3
		c-0.1-0.1-0.2-0.2-0.3-0.3s-0.3-0.2-0.4-0.3c-0.1-0.1-0.2-0.1-0.3-0.2c-0.1-0.1-0.3-0.1-0.4-0.3c-0.1-0.1-0.3-0.1-0.4-0.2
		c-0.1-0.1-0.3-0.1-0.4-0.2s-0.3-0.1-0.4-0.2c-0.1-0.1-0.3-0.1-0.4-0.1c-0.1-0.1-0.3-0.1-0.4-0.1c-0.1,0-0.3-0.1-0.3-0.1
		c-0.2-0.1-0.3-0.1-0.5-0.1c-0.1,0-0.1-0.1-0.3-0.1l-214.7-29.6v-30c0-0.3,0-0.6-0.1-0.9c0-0.1,0-0.1-0.1-0.3c0-0.2-0.1-0.4-0.1-0.6
		c-0.1-0.2-0.1-0.3-0.1-0.5c0-0.1-0.1-0.2-0.1-0.3c-0.1-0.2-0.1-0.4-0.2-0.6c0-0.1-0.1-0.2-0.1-0.3c-0.1-0.2-0.1-0.3-0.3-0.5
		c-0.1-0.1-0.1-0.2-0.1-0.3c-0.1-0.1-0.1-0.3-0.3-0.4c-0.1-0.1-0.1-0.2-0.2-0.3c-0.1-0.1-0.1-0.2-0.2-0.3c-0.1-0.1-0.2-0.3-0.3-0.4
		c-0.1-0.1-0.1-0.1-0.2-0.2c-0.1-0.1-0.3-0.3-0.4-0.4c-0.1-0.1-0.1-0.1-0.2-0.2c-0.1-0.1-0.3-0.3-0.4-0.4c-0.1-0.1-0.2-0.1-0.3-0.2
		c-0.1-0.1-0.3-0.2-0.4-0.3c-0.2-0.1-0.4-0.3-0.5-0.3c-0.1-0.1-0.1-0.1-0.2-0.1c-0.3-0.1-0.6-0.3-0.8-0.4l-46.6-19.6
		c-4.4-1.8-9.4,0.2-11.2,4.5c-1.8,4.4,0.2,9.4,4.5,11.2l41.3,17.4v38.7v6.1v47v42v53.1c0,17.7,13.3,32.4,30.4,34.6
		c-3.1,5.2-4.9,11.2-4.9,17.7c0,19,15.5,34.4,34.4,34.4s34.4-15.5,34.4-34.4c0-6.3-1.7-12.3-4.7-17.4h76.7c-3,5.1-4.7,11.1-4.7,17.4
		c0,19,15.5,34.4,34.4,34.4s34.4-15.5,34.4-34.4s-15.5-34.4-34.4-34.4H181.9c-9.9,0-17.8-8-17.8-17.8v-23.1
		C169.2,290.2,175.3,292,181.9,292z M224.3,362.5c0,9.6-7.8,17.4-17.4,17.4c-9.5,0-17.4-7.8-17.4-17.4s7.8-17.4,17.4-17.4
		C216.5,345.1,224.3,352.9,224.3,362.5z M360.4,362.5c0,9.6-7.8,17.4-17.4,17.4c-9.5,0-17.4-7.8-17.4-17.4s7.8-17.4,17.4-17.4
		C352.6,345.1,360.4,352.9,360.4,362.5z M351.3,274.9H181.9c-9.9,0-17.8-8-17.8-17.8v-42v-47v-3.2l205,28.2V257
		C369.1,267,361.1,274.9,351.3,274.9z"/>
</g>
</svg>
