<?xml version="1.0" encoding="utf-8"?>
<!-- Generator: Adobe Illustrator 21.0.0, SVG Export Plug-In . SVG Version: 6.00 Build 0)  -->
<svg version="1.1" id="Capa_1" xmlns="http://www.w3.org/2000/svg" xmlns:xlink="http://www.w3.org/1999/xlink" x="0px" y="0px"
	 viewBox="0 0 467.5 467.5" style="enable-background:new 0 0 467.5 467.5;" xml:space="preserve">
<style type="text/css">
	.st0{fill:#3329FF;}
	.st1{fill:#FFFFFF;}
</style>
<circle class="st0" cx="234.1" cy="234.1" r="238.1"/>
<g>
	<path class="st1" d="M373.1,234.9c-0.5-2.6-2-4.8-4.3-6.1c-51.7-30.8-82.1-37.2-104.2-41.8c-2.9-0.6-5.6-1.2-8.3-1.8l-9.6-78.9
		c-0.3-17.4-14.6-31.6-32.1-31.6c-17.3,0-31.2,13.3-32.1,30.5c0,0.3-0.1,0.6-0.1,1v46.4l-0.7,113.3l-12.2-9.5
		c-2.4-2-19-15.4-39.5-15.4c-13.9,0-26.2,5.9-36.6,17.3c-2.9,3.2-3.2,8-0.7,11.5c0.9,1.2,22,30.8,55,60.8
		c19.6,17.8,39.3,32,58.6,42.3c24.6,13.1,48.7,19.8,71.6,20c0.3,0,0.7,0,1.1,0l0,0c31.3,0,55.7-10.3,72.4-30.7
		C388.7,316.8,373.7,238.2,373.1,234.9z M337.2,350.5c-13.1,15.9-32.7,23.9-58.2,23.9c-0.3,0-0.6,0-1,0
		c-45.5-0.3-89.2-31.3-117.8-57.2c-22.8-20.7-40-41.5-47.9-51.7c5.4-4.2,11.2-6.2,17.6-6.2c14.8,0,27.6,11,27.6,11.1
		c0.1,0.1,0.3,0.3,0.5,0.4l27.1,20.9c2.8,2.1,6.5,2.5,9.7,1c3.1-1.5,5.1-4.7,5.2-8.2l0.9-131.9v-45.9c0-0.1,0-0.2,0-0.3
		c0.2-7.5,6.3-13.3,13.7-13.3c7.6,0,13.7,6.2,13.7,13.7c0,0.3,0,0.7,0.1,1.1l10.3,85.7c0.5,3.7,3.1,6.8,6.7,7.8
		c4.9,1.3,9.9,2.4,15.3,3.5c21.5,4.5,48.2,10.1,95,37.5C358.1,258.1,364.7,317.1,337.2,350.5z"/>
</g>
</svg>
